<svg width="80" height="81" viewBox="0 0 80 81" fill="none" xmlns="http://www.w3.org/2000/svg">
<g clip-path="url(#clip0_1_171)">
<path d="M76.0289 38.5358L73.6067 37.2231C73.4225 37.1233 73.3223 36.9136 73.3573 36.7014C73.5211 35.7098 73.6042 34.6947 73.6042 33.6844C73.6042 32.6739 73.5211 31.6589 73.3573 30.6675C73.3222 30.4551 73.4225 30.2455 73.6067 30.1456L76.0289 28.8331C76.6955 28.472 77.1814 27.873 77.3972 27.1462C77.6131 26.4197 77.5331 25.6523 77.172 24.9861L74.4805 20.0192C73.7348 18.6436 72.0091 18.1309 70.6334 18.8764L68.2088 20.1903C68.0247 20.2903 67.7961 20.2611 67.6405 20.1183C65.7653 18.3972 63.6002 17.1053 61.2048 16.2783C60.9953 16.2059 60.8545 16.0159 60.8545 15.8056V13.0533C60.8545 11.4884 59.5814 10.2155 58.0167 10.2155H52.3677C50.803 10.2155 49.5299 11.4884 49.5299 13.0533V15.8056C49.5299 16.0159 49.3891 16.2059 49.1797 16.2783C46.7842 17.1053 44.6189 18.3973 42.7441 20.1183C42.5883 20.2612 42.3599 20.2901 42.1756 20.1903L39.7509 18.8762C38.3752 18.1308 36.6495 18.6437 35.9039 20.0194L33.2125 24.9861C32.8514 25.6525 32.7714 26.4197 32.9874 27.1462C33.0753 27.4425 33.2103 27.7159 33.3819 27.9622H18.4663C17.8189 27.9622 17.2941 28.4869 17.2941 29.1344C17.2941 29.7817 17.8189 30.3065 18.4663 30.3065H55.5975C55.6656 30.3065 55.7211 30.362 55.7211 30.4301V37.0625H4.82829V30.4303C4.82829 30.362 4.88376 30.3067 4.95188 30.3067H13.1525C13.7999 30.3067 14.3247 29.782 14.3247 29.1345C14.3247 28.4872 13.7999 27.9623 13.1525 27.9623H4.95188C3.5911 27.9623 2.48407 29.0694 2.48407 30.4301V38.2345C2.48407 38.2428 2.48516 38.2508 2.48532 38.2589C2.48563 38.2722 2.48657 38.2851 2.48735 38.2984C2.48954 38.3401 2.49391 38.3814 2.50048 38.4219C2.50204 38.4315 2.50313 38.4412 2.50485 38.4508C2.51438 38.5015 2.52688 38.5511 2.54266 38.5992C2.54469 38.6056 2.54735 38.6119 2.54954 38.6181C2.56469 38.6617 2.58235 38.704 2.60235 38.745C2.60641 38.7536 2.61032 38.7622 2.61469 38.7706C2.63813 38.8161 2.66407 38.8598 2.69313 38.9017C2.69782 38.9084 2.70313 38.9148 2.70798 38.9215C2.73469 38.9584 2.7636 38.9936 2.79438 39.027C2.79891 39.032 2.80235 39.0376 2.80704 39.0425L23.8947 61.2001C24.1133 61.4298 24.2336 61.7309 24.2336 62.0478V73.9231C24.2336 74.6383 24.6203 75.3012 25.2425 75.6531L33.3484 80.239C33.6558 80.413 33.9919 80.4998 34.3277 80.4997C34.672 80.4997 35.0161 80.4084 35.3288 80.2262C35.9464 79.8661 36.3152 79.2242 36.3152 78.509V72.7973C36.3152 72.15 35.7903 71.6251 35.143 71.6251C34.4956 71.6251 33.9708 72.1498 33.9708 72.7973V77.8978L26.5777 73.7151V62.0478C26.5777 61.1265 26.2278 60.2515 25.5925 59.584L6.3897 39.4067H54.1594L51.7933 41.893C51.7909 41.8955 51.7886 41.898 51.7863 41.9005L34.9561 59.5845C34.3209 60.2519 33.9711 61.1269 33.9711 62.0481V67.3278C33.9711 67.9751 34.4959 68.5 35.1433 68.5C35.7906 68.5 36.3155 67.9753 36.3155 67.3278V62.0481C36.3155 61.7311 36.4358 61.4301 36.6544 61.2006L47.1008 50.224C47.7761 50.5547 48.4716 50.8464 49.1795 51.0908C49.3891 51.1631 49.5299 51.3531 49.5299 51.5634V54.3158C49.5299 55.8806 50.803 57.1536 52.3677 57.1536H58.0167C59.5814 57.1536 60.8545 55.8806 60.8545 54.3158V51.5634C60.8545 51.3531 60.9953 51.1631 61.2048 51.0908C63.6005 50.2636 65.7658 48.9717 67.6405 47.2508C67.7964 47.108 68.0247 47.0792 68.2089 47.1787L70.6336 48.4928C72.0092 49.2383 73.735 48.7255 74.4806 47.3497L77.1719 42.3828C77.533 41.7164 77.613 40.9492 77.397 40.2226C77.1813 39.4958 76.6953 38.8969 76.0289 38.5358ZM75.1108 41.2659L72.4194 46.2325C72.2897 46.4719 71.9897 46.5611 71.7502 46.4315L69.3258 45.1176C68.2624 44.5414 66.948 44.7042 66.0552 45.5236C64.4188 47.0258 62.5294 48.1534 60.4397 48.875C59.2856 49.2734 58.5103 50.3539 58.5103 51.5634V54.3158C58.5103 54.588 58.2889 54.8094 58.0167 54.8094H52.3677C52.0955 54.8094 51.8741 54.588 51.8741 54.3158V51.5634C51.8741 50.3539 51.0988 49.2736 49.9445 48.8748C49.5608 48.7423 49.1819 48.5922 48.808 48.4301L53.0106 44.0142C53.7248 44.1644 54.4558 44.2401 55.1922 44.2401C57.0592 44.2401 58.8945 43.7458 60.4997 42.8108C61.0589 42.485 61.2483 41.7673 60.9224 41.208C60.5964 40.6486 59.8789 40.4598 59.3194 40.7851C58.0722 41.5117 56.6452 41.8959 55.1922 41.8959C55.1378 41.8959 55.0836 41.8942 55.0292 41.8931L57.742 39.0426C57.7467 39.0378 57.7502 39.0322 57.7547 39.0272C57.7855 38.9937 57.8144 38.9586 57.8411 38.9217C57.8459 38.915 57.8513 38.9086 57.8559 38.9019C57.885 38.8601 57.9109 38.8162 57.9344 38.7708C57.9388 38.7623 57.9425 38.7537 57.9467 38.7451C57.9667 38.704 57.9844 38.6619 57.9995 38.6183C58.0017 38.6119 58.0044 38.6058 58.0064 38.5994C58.0222 38.5512 58.0349 38.5017 58.0442 38.4509C58.0461 38.4414 58.047 38.4317 58.0486 38.422C58.0552 38.3815 58.0595 38.3403 58.0617 38.2986C58.0625 38.2855 58.0634 38.2723 58.0638 38.259C58.0639 38.2508 58.065 38.2428 58.065 38.2347V30.4303C58.065 29.0695 56.958 27.9625 55.5972 27.9625H49.3033C50.8303 26.3933 52.9461 25.4733 55.192 25.4733C59.7198 25.4733 63.4036 29.1569 63.4036 33.6847C63.4036 34.9747 63.1134 36.2087 62.5411 37.3528C62.2516 37.9317 62.4859 38.6359 63.0648 38.9255C63.2333 39.0097 63.4122 39.0497 63.5884 39.0497C64.0183 39.0495 64.4322 38.8122 64.6377 38.4017C65.3744 36.9292 65.7478 35.3423 65.7478 33.6848C65.7478 27.8644 61.0125 23.1292 55.192 23.1292C51.5948 23.1292 48.2572 24.9645 46.3206 27.9626H37.6683L35.472 26.7723C35.3156 26.6876 35.2559 26.5522 35.2342 26.4792C35.2125 26.4059 35.1886 26.2598 35.2734 26.1034L37.9649 21.1369C38.0945 20.8975 38.3949 20.8084 38.6341 20.9378L41.0584 22.2517C42.122 22.8281 43.4364 22.6653 44.3291 21.8458C45.9656 20.3436 47.855 19.2159 49.9447 18.4944C51.0988 18.0961 51.8741 17.0155 51.8741 15.8059V13.0533C51.8741 12.7811 52.0955 12.5597 52.3677 12.5597H58.0167C58.2889 12.5597 58.5103 12.7811 58.5103 13.0533V15.8056C58.5103 17.0151 59.2856 18.0955 60.4397 18.494C62.5292 19.2156 64.4186 20.3433 66.0553 21.8455C66.9478 22.6648 68.2622 22.8278 69.3258 22.2514L71.7503 20.9376C71.9897 20.8078 72.2898 20.897 72.4195 21.1364L75.1109 26.1031C75.1958 26.2595 75.1719 26.4056 75.1502 26.4789C75.1284 26.552 75.0686 26.6873 74.9122 26.7722L72.4899 28.0848C71.4275 28.6605 70.8467 29.852 71.0445 31.0498C71.1875 31.9153 71.26 32.8017 71.26 33.6845C71.26 34.5673 71.1875 35.4537 71.0444 36.3194C70.8466 37.517 71.4273 38.7084 72.4897 39.2842L74.912 40.597C75.0684 40.6817 75.1281 40.8172 75.1498 40.8901C75.1717 40.9634 75.1956 41.1095 75.1108 41.2659Z" fill="#323232"/>
<path d="M3.6561 12.3635C4.30345 12.3635 4.82829 11.8388 4.82829 11.1913V6.00971C4.82829 5.36237 4.30345 4.83752 3.6561 4.83752C3.00876 4.83752 2.48392 5.36221 2.48392 6.00971V11.1913C2.48407 11.8388 3.00876 12.3635 3.6561 12.3635Z" fill="#323232"/>
<path d="M23.2777 24.6808C23.925 24.6808 24.4498 24.1561 24.4498 23.5086V18.3269C24.4498 17.6795 23.925 17.1547 23.2777 17.1547C22.6303 17.1547 22.1055 17.6794 22.1055 18.3269V23.5086C22.1055 24.1561 22.6303 24.6808 23.2777 24.6808Z" fill="#323232"/>
<path d="M18.2859 8.02578C18.9333 8.02578 19.4581 7.50109 19.4581 6.85359V1.67219C19.4581 1.02484 18.9333 0.5 18.2859 0.5C17.6386 0.5 17.1137 1.02469 17.1137 1.67219V6.85375C17.1137 7.50109 17.6386 8.02578 18.2859 8.02578Z" fill="#323232"/>
<path d="M42.135 10.6167C42.7823 10.6167 43.3072 10.092 43.3072 9.44451V4.26295C43.3072 3.6156 42.7823 3.09076 42.135 3.09076C41.4876 3.09076 40.9628 3.61545 40.9628 4.26295V9.44451C40.963 10.092 41.4876 10.6167 42.135 10.6167Z" fill="#323232"/>
<path d="M12.9052 19.1392C15.1041 19.1392 16.893 17.3503 16.893 15.1515C16.893 12.9528 15.1041 11.1639 12.9052 11.1639C10.7064 11.1639 8.91751 12.9528 8.91751 15.1515C8.91751 17.3503 10.7064 19.1392 12.9052 19.1392ZM12.9052 13.5081C13.8114 13.5081 14.5486 14.2453 14.5486 15.1515C14.5486 16.0578 13.8114 16.795 12.9052 16.795C11.9989 16.795 11.2617 16.0578 11.2617 15.1515C11.2617 14.2453 11.9991 13.5081 12.9052 13.5081Z" fill="#323232"/>
<path d="M30.9498 16.0798C33.1486 16.0798 34.9375 14.2909 34.9375 12.0922C34.9375 9.89328 33.1486 8.10437 30.9498 8.10437C28.7509 8.10437 26.962 9.89328 26.962 12.0922C26.9622 14.2909 28.7511 16.0798 30.9498 16.0798ZM30.9498 10.4486C31.8561 10.4486 32.5933 11.1859 32.5933 12.0922C32.5933 12.9984 31.8561 13.7356 30.9498 13.7356C30.0436 13.7356 29.3064 12.9984 29.3064 12.0922C29.3064 11.1859 30.0436 10.4486 30.9498 10.4486Z" fill="#323232"/>
</g>
<defs>
<clipPath id="clip0_1_171">
<rect width="80" height="80" fill="white" transform="translate(0 0.5)"/>
</clipPath>
</defs>
</svg>
