<svg width="69" height="81" viewBox="0 0 69 81" fill="none" xmlns="http://www.w3.org/2000/svg">
<path d="M68.2549 50.726C68.1156 50.4299 67.8594 50.2055 67.5475 50.1069C67.0167 49.9391 54.453 46.0438 46.0479 49.993C40.9167 52.4041 38.8214 59.2229 39.4356 62.8828C38.0851 63.8303 36.9304 64.7115 35.9985 65.459C36.4246 63.3792 36.8309 61.106 37.1846 58.6596C37.8345 54.1665 38.2209 49.6554 38.346 45.1716C38.452 44.6668 39.247 41.3137 42.1572 38.1819C42.9143 38.8188 43.9222 39.3927 45.0433 39.7971C46.1509 40.1966 47.2562 40.396 48.3115 40.396C49.4259 40.396 50.4844 40.1735 51.4301 39.7291C57.2001 37.0179 60.6219 28.7327 60.7648 28.3813C60.888 28.0783 60.8787 27.7377 60.7398 27.4416C60.6006 27.1455 60.3444 26.9211 60.0325 26.8225C59.6709 26.7083 51.1083 24.0539 45.3387 26.7649C41.4234 28.6047 40.1282 33.7629 40.7779 36.22C39.7832 37.2285 38.9898 38.2658 38.3587 39.2563C38.3351 38.2805 38.2995 37.3068 38.2504 36.336C37.9906 31.1963 37.3707 26.1266 36.3999 21.1699C38.6107 19.7255 41.1801 15.7769 40.1703 11.9261C38.5529 5.75967 31.0273 0.888881 30.7078 0.684506C30.432 0.508411 30.0948 0.455286 29.7793 0.538255C29.4629 0.621224 29.1956 0.832631 29.042 1.12138C28.8637 1.45623 24.6974 9.39343 26.3148 15.5598C27.3235 19.4058 31.491 21.5847 34.1268 21.7631C35.0149 26.3324 35.5964 31.0008 35.8676 35.7321C34.9598 34.453 33.9946 33.3158 33.0221 32.3114C33.7792 29.8146 33.0263 24.9175 29.5401 22.7172C24.1488 19.3147 15.3246 20.8922 14.9516 20.961C14.6299 21.0203 14.3477 21.2114 14.1732 21.488C13.9987 21.7647 13.9477 22.1016 14.0326 22.4174C14.131 22.7838 16.5041 31.428 21.8952 34.8304C23.1616 35.6297 24.5938 35.9502 25.9976 35.9502C28.1763 35.95 30.284 35.1769 31.5907 34.2227C33.2054 35.9311 34.7824 38.034 36.0393 40.5749C36.1003 45.3505 35.8504 50.1776 35.2953 54.9977C34.7246 54.1685 34.0349 53.384 33.2287 52.6449C33.8045 48.868 30.4271 41.106 24.1834 39.2574C20.1251 38.0558 15.0287 38.3057 9.0352 39.9997C4.62988 41.2449 1.42253 42.8136 1.28816 42.8799C0.994719 43.0244 0.775031 43.2849 0.682219 43.5985C0.58925 43.9121 0.631906 44.2502 0.79925 44.5313C0.875969 44.6599 2.71222 47.7219 5.72973 51.1649C9.83474 55.849 13.9741 58.8331 18.0321 60.0346C19.0549 60.3374 20.0619 60.4617 21.0271 60.4615C23.8338 60.4613 26.2802 59.4102 27.6865 58.6465C29.5702 57.6234 31.1954 56.2559 32.1906 54.9182C33.3949 56.1599 34.2967 57.6118 34.7182 59.3062C34.2098 62.6128 33.5881 65.6718 32.9474 68.3668C32.9434 68.3835 32.9392 68.4001 32.9357 68.4168C31.7467 73.4089 30.4951 77.1458 29.7865 78.8847C29.5418 79.4839 29.8292 80.1679 30.4284 80.4126C30.5734 80.4719 30.7234 80.5 30.8709 80.5C31.3329 80.5 31.7709 80.225 31.9562 79.7708C32.0501 79.5409 33.5957 75.7111 35.1523 69.2575C35.8024 68.6674 37.6568 67.0415 40.432 65.0709C42.1664 67.1487 46.2053 69.2145 50.2794 69.2145C51.7669 69.2145 53.2592 68.9389 54.6447 68.2879C63.0497 64.3387 68.0705 52.1809 68.2802 51.6652C68.4031 51.3627 68.3939 51.0221 68.2549 50.726ZM46.3353 28.8863C47.912 28.1455 49.7981 27.8928 51.6384 27.8928C54.165 27.8928 56.6045 28.3692 58.0348 28.7127C56.9139 30.9947 54.1747 35.8502 50.4334 37.608C48.7133 38.4161 46.8164 37.9452 45.8384 37.5924C45.0311 37.3011 44.3714 36.9238 43.8953 36.5699C44.3203 36.2299 44.7737 35.8991 45.2634 35.5841C45.8076 35.234 45.965 34.5088 45.6148 33.9646C45.2647 33.4202 44.5393 33.2632 43.9951 33.6132C43.6404 33.8413 43.3022 34.0761 42.9776 34.3158C43.1656 32.5571 44.1857 29.8963 46.3353 28.8863ZM23.2216 28.1186C23.2734 28.14 26.4334 29.4763 29.884 32.5629C28.3968 33.4404 25.3146 34.2175 23.1459 32.8488C19.6502 30.6427 17.531 25.486 16.7002 23.0833C19.2269 22.7992 24.7934 22.4933 28.289 24.6994C30.2456 25.9342 30.9462 28.5928 30.9527 30.3643C27.4487 27.3594 24.3368 26.0433 24.1165 25.9524C23.5184 25.7053 22.833 25.99 22.586 26.5882C22.3388 27.1863 22.6235 27.8716 23.2216 28.1186ZM35.8614 18.6056C35.1884 15.5764 34.3857 12.592 33.4485 9.66468C33.251 9.04827 32.5912 8.70843 31.9753 8.90593C31.3588 9.10327 31.0192 9.76296 31.2165 10.3794C32.1549 13.3111 32.956 16.3019 33.6235 19.3389C31.931 18.9356 29.2224 17.4081 28.5818 14.9653C27.5331 10.967 29.5043 5.75202 30.5373 3.42904C32.5778 4.94608 36.8545 8.52233 37.9031 12.5206C38.51 14.8345 37.0971 17.3427 35.8614 18.6056ZM17.8808 48.4713C21.4576 49.1829 26.6843 50.6252 30.417 53.3813C29.7345 54.3601 28.3771 55.6048 26.5677 56.5874C24.9966 57.4407 21.8852 58.7318 18.6973 57.7877C11.5822 55.6813 5.53926 47.4498 3.52566 44.4405C6.85129 43.0112 16.3924 39.3957 23.5179 41.5054C26.7054 42.4491 28.6129 45.2258 29.4662 46.7969C30.2606 48.2596 30.7131 49.7038 30.8788 50.8343C30.3956 50.5184 29.8857 50.2134 29.3492 49.9193C26.3899 48.298 22.6852 47.0374 18.3379 46.1726C17.703 46.0462 17.086 46.4585 16.9601 47.0933C16.8337 47.7282 17.246 48.3451 17.8808 48.4713ZM53.6478 66.1671C52.5826 66.6678 51.4309 66.8754 50.2778 66.8754C46.9706 66.8753 43.6573 65.1653 42.367 63.746C46.4486 61.0509 51.9597 58.0335 58.2856 56.1856C58.9069 56.004 59.2633 55.3534 59.0819 54.7321C58.9005 54.1109 58.2497 53.7545 57.6283 53.9359C51.3003 55.7845 45.8161 58.701 41.6607 61.3846C41.7275 58.5581 43.3811 53.836 47.0448 52.1145C49.4783 50.971 52.3797 50.5823 55.2012 50.5823C59.4764 50.5823 63.5688 51.4754 65.5686 51.9891C64.1083 55.0885 59.7783 63.2867 53.6478 66.1671Z" fill="currentColor"/>
</svg>
