<svg width="75" height="59" viewBox="0 0 75 59" fill="none" xmlns="http://www.w3.org/2000/svg">
<path d="M6.45126 31.4138C11.1438 45.0338 21.26 58 37.52 58.25C53.75 58 63.855 45.0325 68.55 31.4138C74.8688 25.23 75.7675 11.2413 74.4638 5.02375C73.9575 2.605 73.1338 1.22875 71.95 0.820004C70.3438 0.263754 66.0463 2.39375 63.27 8.11125C62.0806 7.52783 60.8108 7.12507 59.5025 6.91625C54.6477 6.18445 49.926 4.7463 45.4875 2.6475C43.0062 1.38626 40.2814 0.676701 37.5 0.567505C34.7199 0.677159 31.9964 1.38671 29.5163 2.6475C25.0774 4.74642 20.3553 6.18457 15.5 6.91625C14.1918 7.12507 12.922 7.52783 11.7325 8.11125C8.95626 2.39125 4.66001 0.261255 3.05501 0.818755C1.86876 1.22876 1.04501 2.605 0.538764 5.02375C-0.767486 11.2413 0.131264 25.23 6.45126 31.4138ZM71.1775 3.25C71.48 3.6025 72.1163 4.94501 72.3763 8.15251C72.7555 13.2089 72.1437 18.2907 70.575 23.1125C70.9913 17.7638 69.4213 12.65 65.3975 9.45375C67.4113 5.14 70.2338 3.4675 71.1775 3.25ZM15.9013 9.38375C20.9686 8.61074 25.8977 7.11026 30.5363 4.92876C32.6981 3.81853 35.0725 3.1839 37.5 3.0675C39.9288 3.18341 42.3045 3.81805 44.4675 4.92876C49.1061 7.11026 54.0352 8.61074 59.1025 9.38375C66.5775 10.5738 69.4275 18.4475 67.68 25.5338C64.25 39.6125 54.86 54.715 38.75 55.6963V17C38.75 16.6685 38.6183 16.3505 38.3839 16.1161C38.1495 15.8817 37.8315 15.75 37.5 15.75C37.1685 15.75 36.8506 15.8817 36.6161 16.1161C36.3817 16.3505 36.25 16.6685 36.25 17V55.6938C20.125 54.6938 10.75 39.6025 7.32377 25.5338C5.57502 18.4488 8.42626 10.5725 15.9013 9.38375ZM2.62501 8.15C2.88876 4.89125 3.54126 3.55875 3.81001 3.24375C4.74001 3.45 7.58001 5.11875 9.60376 9.45375C5.57876 12.6513 4.00876 17.7638 4.42501 23.1125C2.85647 18.2898 2.24503 13.2071 2.62501 8.15Z" fill="#323232"/>
<path d="M20.3675 15.7337C23.502 15.2242 26.5069 14.108 29.2138 12.4475C31.7313 10.8937 34.2588 9.5 37.5 9.5C40.7413 9.5 43.2688 10.8938 45.7913 12.45C48.4966 14.1094 51.4999 15.2248 54.6325 15.7337C54.7945 15.7602 54.9602 15.7544 55.12 15.7169C55.2798 15.6793 55.4306 15.6106 55.5638 15.5147C55.6971 15.4188 55.8102 15.2976 55.8966 15.1581C55.983 15.0185 56.0411 14.8633 56.0675 14.7012C56.0939 14.5392 56.0882 14.3736 56.0506 14.2138C56.013 14.054 55.9443 13.9032 55.8484 13.7699C55.7526 13.6367 55.6314 13.5236 55.4918 13.4372C55.3522 13.3508 55.197 13.2927 55.035 13.2663C52.2236 12.8095 49.5283 11.8087 47.1 10.32C44.375 8.64 41.3925 7 37.5 7C33.6075 7 30.625 8.64 27.905 10.3175C25.4752 11.8073 22.7782 12.8089 19.965 13.2663C19.803 13.2927 19.6478 13.3508 19.5082 13.4372C19.3686 13.5236 19.2474 13.6367 19.1516 13.7699C19.0557 13.9032 18.987 14.054 18.9494 14.2138C18.9118 14.3736 18.9061 14.5392 18.9325 14.7012C18.9589 14.8633 19.017 15.0185 19.1034 15.1581C19.1899 15.2976 19.3029 15.4188 19.4362 15.5147C19.5694 15.6106 19.7203 15.6793 19.88 15.7169C20.0398 15.7544 20.2055 15.7602 20.3675 15.7337Z" fill="#323232"/>
<path d="M31.25 33.875C31.25 32.7625 30.9201 31.6749 30.302 30.7499C29.6839 29.8249 28.8054 29.1039 27.7776 28.6782C26.7498 28.2524 25.6188 28.141 24.5276 28.3581C23.4365 28.5751 22.4342 29.1109 21.6475 29.8975C20.8609 30.6842 20.3251 31.6865 20.1081 32.7776C19.891 33.8688 20.0024 34.9998 20.4282 36.0276C20.8539 37.0554 21.5749 37.9339 22.4999 38.552C23.4249 39.1701 24.5125 39.5 25.625 39.5C27.1163 39.4983 28.5461 38.9052 29.6007 37.8507C30.6552 36.7961 31.2483 35.3663 31.25 33.875ZM22.5 33.875C22.5 33.2569 22.6833 32.6527 23.0267 32.1388C23.37 31.6249 23.8581 31.2244 24.4291 30.9879C25.0001 30.7514 25.6285 30.6895 26.2347 30.81C26.8409 30.9306 27.3977 31.2283 27.8347 31.6653C28.2718 32.1023 28.5694 32.6592 28.69 33.2653C28.8105 33.8715 28.7486 34.4999 28.5121 35.0709C28.2756 35.6419 27.8751 36.13 27.3612 36.4733C26.8473 36.8167 26.2431 37 25.625 37C24.7962 37 24.0013 36.6708 23.4153 36.0847C22.8292 35.4987 22.5 34.7038 22.5 33.875Z" fill="#323232"/>
<path d="M14.6325 20.695L30.8825 25.695C31.0394 25.7432 31.2043 25.7601 31.3678 25.7447C31.5313 25.7292 31.6901 25.6817 31.8352 25.6048C31.9802 25.528 32.1088 25.4233 32.2134 25.2968C32.3181 25.1703 32.3968 25.0244 32.445 24.8675C32.4933 24.7106 32.5102 24.5457 32.4947 24.3822C32.4792 24.2188 32.4317 24.0599 32.3549 23.9149C32.278 23.7698 32.1734 23.6412 32.0469 23.5366C31.9203 23.4319 31.7745 23.3533 31.6175 23.305L15.3675 18.305C15.0506 18.2075 14.7079 18.2399 14.4149 18.3951C14.1219 18.5503 13.9025 18.8156 13.805 19.1325C13.7076 19.4494 13.74 19.7921 13.8952 20.0851C14.0504 20.3781 14.3156 20.5975 14.6325 20.695Z" fill="#323232"/>
<path d="M31.645 45.815L24.145 43.315C23.8301 43.2102 23.4864 43.2349 23.1896 43.3835C22.8929 43.5321 22.6673 43.7926 22.5625 44.1075C22.4577 44.4225 22.4824 44.7661 22.631 45.0629C22.7796 45.3597 23.0401 45.5853 23.355 45.69L30.855 48.19C31.011 48.2419 31.1756 48.2625 31.3395 48.2508C31.5034 48.239 31.6634 48.1951 31.8104 48.1215C31.9573 48.0479 32.0884 47.9461 32.196 47.8219C32.3036 47.6977 32.3856 47.5535 32.4375 47.3975C32.4894 47.2416 32.51 47.0769 32.4983 46.913C32.4865 46.7491 32.4426 46.5891 32.369 46.4421C32.2954 46.2952 32.1936 46.1642 32.0694 46.0566C31.9452 45.949 31.801 45.8669 31.645 45.815Z" fill="#323232"/>
<path d="M42.555 24.8675C42.6032 25.0244 42.6819 25.1703 42.7866 25.2969C42.8912 25.4234 43.0197 25.5281 43.1648 25.6049C43.3099 25.6818 43.4688 25.7293 43.6322 25.7447C43.7957 25.7602 43.9606 25.7433 44.1175 25.695L60.3675 20.695C60.5244 20.6467 60.6703 20.568 60.7968 20.4634C60.9234 20.3587 61.028 20.2302 61.1049 20.0851C61.1817 19.94 61.2292 19.7812 61.2447 19.6178C61.2602 19.4543 61.2433 19.2894 61.195 19.1325C61.1468 18.9756 61.0681 18.8297 60.9634 18.7032C60.8588 18.5766 60.7302 18.472 60.5851 18.3951C60.4401 18.3183 60.2812 18.2708 60.1178 18.2553C59.9543 18.2398 59.7894 18.2567 59.6325 18.305L43.3825 23.305C43.2256 23.3532 43.0797 23.4319 42.9531 23.5365C42.8266 23.6412 42.7219 23.7697 42.6451 23.9148C42.5682 24.0599 42.5207 24.2187 42.5053 24.3822C42.4898 24.5457 42.5067 24.7106 42.555 24.8675Z" fill="#323232"/>
<path d="M50.855 43.315L43.355 45.815C43.1991 45.8669 43.0549 45.949 42.9306 46.0566C42.8064 46.1642 42.7046 46.2952 42.631 46.4421C42.5574 46.5891 42.5135 46.7491 42.5017 46.913C42.49 47.0769 42.5106 47.2416 42.5625 47.3975C42.6144 47.5535 42.6965 47.6977 42.8041 47.8219C42.9117 47.9461 43.0427 48.0479 43.1896 48.1215C43.4864 48.2701 43.8301 48.2948 44.145 48.19L51.645 45.69C51.801 45.6381 51.9452 45.5561 52.0694 45.4485C52.1936 45.3409 52.2954 45.2098 52.369 45.0629C52.4426 44.9159 52.4865 44.7559 52.4983 44.592C52.51 44.4281 52.4894 44.2635 52.4375 44.1075C52.3856 43.9516 52.3036 43.8074 52.196 43.6831C52.0884 43.5589 51.9573 43.4571 51.8104 43.3835C51.6634 43.3099 51.5034 43.266 51.3395 43.2542C51.1756 43.2425 51.011 43.2631 50.855 43.315Z" fill="#323232"/>
</svg>
